<svg width="12" height="15" viewBox="0 0 12 15" fill="none" xmlns="http://www.w3.org/2000/svg">
<path d="M10 5.33317H11.3333C11.5101 5.33317 11.6797 5.40341 11.8047 5.52843C11.9298 5.65346 12 5.82303 12 5.99984V13.9998C12 14.1766 11.9298 14.3462 11.8047 14.4712C11.6797 14.5963 11.5101 14.6665 11.3333 14.6665H0.666667C0.489856 14.6665 0.320286 14.5963 0.195262 14.4712C0.0702379 14.3462 0 14.1766 0 13.9998V5.99984C0 5.82303 0.0702379 5.65346 0.195262 5.52843C0.320286 5.40341 0.489856 5.33317 0.666667 5.33317H2V4.6665C2 3.60564 2.42143 2.58822 3.17157 1.83808C3.92172 1.08793 4.93913 0.666504 6 0.666504C7.06087 0.666504 8.07828 1.08793 8.82843 1.83808C9.57857 2.58822 10 3.60564 10 4.6665V5.33317ZM8.66667 5.33317V4.6665C8.66667 3.95926 8.38572 3.28098 7.88562 2.78089C7.38552 2.28079 6.70724 1.99984 6 1.99984C5.29276 1.99984 4.61448 2.28079 4.11438 2.78089C3.61428 3.28098 3.33333 3.95926 3.33333 4.6665V5.33317H8.66667Z" fill="white"/>
</svg>
