<svg width="18" height="18" viewBox="0 0 18 18" fill="none" xmlns="http://www.w3.org/2000/svg">
<path d="M9.37129 2.71797H17.0767C17.3147 2.71797 17.543 2.81252 17.7113 2.98082C17.8796 3.14912 17.9741 3.37739 17.9741 3.6154V16.1795C17.9741 16.4175 17.8796 16.6458 17.7113 16.8141C17.543 16.9824 17.3147 17.0769 17.0767 17.0769H0.922827C0.684812 17.0769 0.456545 16.9824 0.288243 16.8141C0.119942 16.6458 0.0253906 16.4175 0.0253906 16.1795V1.82053C0.0253906 1.58252 0.119942 1.35425 0.288243 1.18595C0.456545 1.01765 0.684812 0.923096 0.922827 0.923096H7.57642L9.37129 2.71797Z" fill="url(#paint0_linear_1232_347)"/>
<defs>
<linearGradient id="paint0_linear_1232_347" x1="8.99975" y1="0.923096" x2="8.99975" y2="17.0769" gradientUnits="userSpaceOnUse">
<stop offset="0.307292" stop-color="#F6F0FF"/>
<stop offset="1" stop-color="#EDE3FF"/>
</linearGradient>
</defs>
</svg>
