<svg width="18" height="16" viewBox="0 0 18 16" fill="none" xmlns="http://www.w3.org/2000/svg">
<path d="M9.34502 2.16667H16.5C16.721 2.16667 16.933 2.25446 17.0893 2.41074C17.2456 2.56702 17.3334 2.77899 17.3334 3V14.6667C17.3334 14.8877 17.2456 15.0996 17.0893 15.2559C16.933 15.4122 16.721 15.5 16.5 15.5H1.50002C1.27901 15.5 1.06704 15.4122 0.910765 15.2559C0.754484 15.0996 0.666687 14.8877 0.666687 14.6667V1.33333C0.666687 1.11232 0.754484 0.900358 0.910765 0.744078C1.06704 0.587797 1.27901 0.5 1.50002 0.5H7.67835L9.34502 2.16667ZM9.00002 8H5.66669V9.66667H9.00002V12.1667L12.3334 8.83333L9.00002 5.5V8Z" fill="#AC7DFF"/>
</svg>
