<svg width="14" height="22" viewBox="0 0 14 22" fill="none" xmlns="http://www.w3.org/2000/svg">
<path d="M7 18.0469C7.84094 18.0469 8.52344 18.7294 8.52344 19.5703C8.52344 20.4112 7.84094 21.0938 7 21.0938C6.15906 21.0938 5.47656 20.4112 5.47656 19.5703C5.47656 18.7294 6.15906 18.0469 7 18.0469ZM7 0.78125C10.3658 0.78125 13.0938 3.50922 13.0938 6.875C13.0938 9.07383 12.329 10.2164 10.378 11.8749C8.42086 13.5375 8.01562 14.286 8.01562 16.0156H5.98438C5.98438 13.503 6.78367 12.2629 9.06273 10.3271C10.6034 9.01797 11.0625 8.33141 11.0625 6.875C11.0625 4.63047 9.24453 2.8125 7 2.8125C4.75547 2.8125 2.9375 4.63047 2.9375 6.875V7.89062H0.90625V6.875C0.90625 3.50922 3.63422 0.78125 7 0.78125Z" fill="#9152FF"/>
</svg>
