<svg width="18" height="16" viewBox="0 0 18 16" fill="none" xmlns="http://www.w3.org/2000/svg">
<path d="M9.34508 2.16667H16.5001C16.7211 2.16667 16.9331 2.25446 17.0893 2.41074C17.2456 2.56702 17.3334 2.77899 17.3334 3V14.6667C17.3334 14.8877 17.2456 15.0996 17.0893 15.2559C16.9331 15.4122 16.7211 15.5 16.5001 15.5H1.50008C1.27907 15.5 1.06711 15.4122 0.910826 15.2559C0.754545 15.0996 0.666748 14.8877 0.666748 14.6667V1.33333C0.666748 1.11232 0.754545 0.900358 0.910826 0.744078C1.06711 0.587797 1.27907 0.5 1.50008 0.5H7.67841L9.34508 2.16667ZM8.16675 8H5.66675V9.66667H8.16675V12.1667H9.83341V9.66667H12.3334V8H9.83341V5.5H8.16675V8Z" fill="#AC7DFF"/>
</svg>
