<svg width="14" height="14" viewBox="0 0 14 14" fill="none" xmlns="http://www.w3.org/2000/svg">
<path d="M10.3334 2.99999H13.6667V4.33333H12.3334V13C12.3334 13.1768 12.2631 13.3464 12.1381 13.4714C12.0131 13.5964 11.8435 13.6667 11.6667 13.6667H2.33337C2.15656 13.6667 1.98699 13.5964 1.86197 13.4714C1.73695 13.3464 1.66671 13.1768 1.66671 13V4.33333H0.333374V2.99999H3.66671V0.999995C3.66671 0.823184 3.73695 0.653615 3.86197 0.52859C3.98699 0.403566 4.15656 0.333328 4.33337 0.333328H9.66671C9.84352 0.333328 10.0131 0.403566 10.1381 0.52859C10.2631 0.653615 10.3334 0.823184 10.3334 0.999995V2.99999ZM5.00004 6.33333V10.3333H6.33337V6.33333H5.00004ZM7.66671 6.33333V10.3333H9.00004V6.33333H7.66671ZM5.00004 1.66666V2.99999H9.00004V1.66666H5.00004Z" fill="#949494"/>
</svg>
