<svg width="14" height="12" viewBox="0 0 14 12" fill="none" xmlns="http://www.w3.org/2000/svg">
<path d="M7.27592 1.33333H12.9999C13.1767 1.33333 13.3463 1.40357 13.4713 1.5286C13.5963 1.65362 13.6666 1.82319 13.6666 2V11.3333C13.6666 11.5101 13.5963 11.6797 13.4713 11.8047C13.3463 11.9298 13.1767 12 12.9999 12H0.999919C0.823108 12 0.653538 11.9298 0.528514 11.8047C0.40349 11.6797 0.333252 11.5101 0.333252 11.3333V0.666667C0.333252 0.489856 0.40349 0.320286 0.528514 0.195262C0.653538 0.0702379 0.823108 0 0.999919 0H5.94258L7.27592 1.33333ZM6.99992 6H4.33325V7.33333H6.99992V9.33333L9.66658 6.66667L6.99992 4V6Z" fill="#949494"/>
</svg>
