<svg width="12" height="15" viewBox="0 0 12 15" fill="none" xmlns="http://www.w3.org/2000/svg">
<path d="M10 5.33334H11.3333C11.5101 5.33334 11.6797 5.40358 11.8047 5.5286C11.9298 5.65363 12 5.82319 12 6.00001V14C12 14.1768 11.9298 14.3464 11.8047 14.4714C11.6797 14.5964 11.5101 14.6667 11.3333 14.6667H0.666667C0.489856 14.6667 0.320286 14.5964 0.195262 14.4714C0.0702379 14.3464 0 14.1768 0 14V6.00001C0 5.82319 0.0702379 5.65363 0.195262 5.5286C0.320286 5.40358 0.489856 5.33334 0.666667 5.33334H2V4.66667C2 3.60581 2.42143 2.58839 3.17157 1.83824C3.92172 1.0881 4.93913 0.666672 6 0.666672C7.06087 0.666672 8.07828 1.0881 8.82843 1.83824C9.57857 2.58839 10 3.60581 10 4.66667V5.33334ZM5.33333 10.488V12H6.66667V10.488C6.92086 10.3412 7.11952 10.1147 7.23184 9.84355C7.34416 9.57238 7.36387 9.27172 7.2879 8.98821C7.21193 8.7047 7.04454 8.45418 6.81168 8.2755C6.57882 8.09682 6.29351 7.99997 6 7.99997C5.70649 7.99997 5.42118 8.09682 5.18832 8.2755C4.95546 8.45418 4.78807 8.7047 4.7121 8.98821C4.63613 9.27172 4.65584 9.57238 4.76816 9.84355C4.88048 10.1147 5.07914 10.3412 5.33333 10.488ZM8.66667 5.33334V4.66667C8.66667 3.95943 8.38572 3.28115 7.88562 2.78105C7.38552 2.28096 6.70724 2.00001 6 2.00001C5.29276 2.00001 4.61448 2.28096 4.11438 2.78105C3.61428 3.28115 3.33333 3.95943 3.33333 4.66667V5.33334H8.66667Z" fill="#949494"/>
</svg>
