<svg width="12" height="14" viewBox="0 0 12 14" fill="none" xmlns="http://www.w3.org/2000/svg">
<path d="M2.66667 5.66667H11.3333C11.5101 5.66667 11.6797 5.73691 11.8047 5.86193C11.9298 5.98696 12 6.15653 12 6.33334V13C12 13.1768 11.9298 13.3464 11.8047 13.4714C11.6797 13.5964 11.5101 13.6667 11.3333 13.6667H0.666667C0.489856 13.6667 0.320286 13.5964 0.195262 13.4714C0.0702379 13.3464 0 13.1768 0 13V6.33334C0 6.15653 0.0702379 5.98696 0.195262 5.86193C0.320286 5.73691 0.489856 5.66667 0.666667 5.66667H1.33333V5C1.33295 3.94847 1.68772 2.92763 2.34013 2.10296C2.99253 1.27829 3.90434 0.698124 4.92773 0.456512C5.95113 0.2149 7.02613 0.326003 7.97848 0.771812C8.93084 1.21762 9.70471 1.972 10.1747 2.91267L8.982 3.50867C8.64633 2.83668 8.09353 2.29777 7.41322 1.9793C6.73291 1.66084 5.96497 1.58149 5.23392 1.75412C4.50287 1.92676 3.85155 2.34125 3.38557 2.93041C2.91959 3.51957 2.66627 4.24884 2.66667 5V5.66667ZM4.66667 9V10.3333H7.33333V9H4.66667Z" fill="#949494"/>
</svg>
