<svg width="14" height="14" viewBox="0 0 14 14" fill="none" xmlns="http://www.w3.org/2000/svg">
<path d="M1.66674 12.3333V8.33334C1.66674 6.91886 2.22864 5.5623 3.22883 4.56211C4.22903 3.56191 5.58558 3.00001 7.00007 3.00001C8.41456 3.00001 9.77111 3.56191 10.7713 4.56211C11.7715 5.5623 12.3334 6.91886 12.3334 8.33334V12.3333H13.0001V13.6667H1.00007V12.3333H1.66674ZM3.00007 8.33334H4.3334C4.3334 7.6261 4.61436 6.94782 5.11445 6.44772C5.61455 5.94763 6.29283 5.66668 7.00007 5.66668V4.33334C5.9392 4.33334 4.92179 4.75477 4.17164 5.50492C3.4215 6.25506 3.00007 7.27248 3.00007 8.33334ZM6.3334 0.333344H7.66674V2.33334H6.3334V0.333344ZM12.1854 2.20534L13.1281 3.14801L11.7147 4.56201L10.7714 3.61934L12.1854 2.20534ZM0.87207 3.14801L1.81474 2.20534L3.22874 3.61868L2.28674 4.56268L0.87207 3.14801Z" fill="#949494"/>
</svg>
