<svg width="14" height="12" viewBox="0 0 14 12" fill="none" xmlns="http://www.w3.org/2000/svg">
<path d="M7.27616 1.33333H13.0002C13.177 1.33333 13.3465 1.40357 13.4716 1.5286C13.5966 1.65362 13.6668 1.82319 13.6668 2V11.3333C13.6668 11.5101 13.5966 11.6797 13.4716 11.8047C13.3465 11.9298 13.177 12 13.0002 12H1.00016C0.823352 12 0.653782 11.9298 0.528758 11.8047C0.403734 11.6797 0.333496 11.5101 0.333496 11.3333V0.666667C0.333496 0.489856 0.403734 0.320286 0.528758 0.195262C0.653782 0.0702379 0.823352 0 1.00016 0H5.94283L7.27616 1.33333ZM7.66683 6.66667V4H6.3335V6.66667H4.3335L7.00016 9.33333L9.66683 6.66667H7.66683Z" fill="#949494"/>
</svg>
